<svg width="35" height="34" viewBox="0 0 35 34" fill="none" xmlns="http://www.w3.org/2000/svg">
<path d="M24.4296 9.58405V4.07059C24.4296 2.93177 23.4974 2 22.3591 2H7.77901L2 7.016V29.8354C2 30.9743 2.93177 31.906 4.07059 31.906H22.3591C23.4974 31.906 24.4296 30.9743 24.4296 29.8354V28.5599" stroke="#6BBE92" stroke-width="2.5" stroke-miterlimit="10"/>
<path d="M9.64979 2.18066V8.77238H5.76071" stroke="#6BBE92" stroke-width="2.5" stroke-miterlimit="10"/>
<path d="M26.1219 26.258C30.0768 26.258 33.283 23.0518 33.283 19.0969C33.283 15.1419 30.0768 11.9357 26.1219 11.9357C22.1669 11.9357 18.9607 15.1419 18.9607 19.0969C18.9607 23.0518 22.1669 26.258 26.1219 26.258Z" stroke="#6BBE92" stroke-width="2.5" stroke-miterlimit="10"/>
<path d="M22.8477 18.8189L25.7595 21.1845L29.4912 16.3611" stroke="#6BBE92" stroke-width="2.5" stroke-miterlimit="10"/>
<path d="M9.8931 16.9791H16.9833" stroke="#6BBE92" stroke-width="2.5" stroke-miterlimit="10"/>
<path d="M9.8931 21.1431H17.0149" stroke="#6BBE92" stroke-width="2.5" stroke-miterlimit="10"/>
<path d="M9.8931 25.3055H18.9742" stroke="#6BBE92" stroke-width="2.5" stroke-miterlimit="10"/>
<path d="M7.01445 16.7617H6.56927V17.2064H7.01445V16.7617Z" fill="#6BBE92" stroke="#6BBE92" stroke-width="2.5" stroke-miterlimit="10"/>
<path d="M7.01445 20.9252H6.56927V21.3698H7.01445V20.9252Z" fill="#4F6877" stroke="#6BBE92" stroke-width="2.5" stroke-miterlimit="10"/>
<path d="M7.01445 25.0881H6.56927V25.5328H7.01445V25.0881Z" fill="#4F6877" stroke="#6BBE92" stroke-width="2.5" stroke-miterlimit="10"/>
</svg>
