<svg width="29" height="28" viewBox="0 0 29 28" fill="none" xmlns="http://www.w3.org/2000/svg">
<path d="M20.038 24.5488L14.2168 26.7144L15.9027 20.6415L23.1111 12.4693C23.5089 12.0191 24.3436 12.0987 24.9659 12.645L26.9683 14.4122C27.5901 14.9612 27.7739 15.7797 27.3751 16.2299L20.038 24.5488Z" stroke="#2D9CDB" stroke-width="2.5" stroke-miterlimit="10" stroke-linejoin="round"/>
<path d="M20.3017 24.1075L16.1544 20.4475" stroke="#2D9CDB" stroke-width="2.5" stroke-miterlimit="10" stroke-linejoin="round"/>
<path d="M15.9894 25.9624L14.8427 24.9252" stroke="#2D9CDB" stroke-width="2.5" stroke-miterlimit="10" stroke-linejoin="round"/>
<path d="M18.3083 22.3171L22.3886 17.6909" stroke="#2D9CDB" stroke-width="2.5" stroke-miterlimit="10" stroke-linejoin="round"/>
<path d="M21.6577 14.3067L25.7335 17.9019" stroke="#2D9CDB" stroke-width="2.5" stroke-miterlimit="10" stroke-linejoin="round"/>
<path d="M6.23681 5.37221C6.42915 5.37221 6.58507 5.21629 6.58507 5.02395C6.58507 4.83161 6.42915 4.67569 6.23681 4.67569C6.04447 4.67569 5.88855 4.83161 5.88855 5.02395C5.88855 5.21629 6.04447 5.37221 6.23681 5.37221Z" fill="#2D9CDB" stroke="#2D9CDB" stroke-width="2.5" stroke-miterlimit="10"/>
<path d="M6.23681 12.7487C6.42915 12.7487 6.58507 12.5928 6.58507 12.4004C6.58507 12.2081 6.42915 12.0522 6.23681 12.0522C6.04447 12.0522 5.88855 12.2081 5.88855 12.4004C5.88855 12.5928 6.04447 12.7487 6.23681 12.7487Z" fill="#2D9CDB" stroke="#2D9CDB" stroke-width="2.5" stroke-miterlimit="10"/>
<path d="M6.58508 19.8122C6.58508 20.0049 6.42995 20.16 6.23727 20.16C6.04503 20.16 5.88901 20.0044 5.88901 19.8122C5.88901 19.6186 6.04548 19.4635 6.23727 19.4635C6.42995 19.4635 6.58508 19.6186 6.58508 19.8122Z" fill="#2D9CDB" stroke="#2D9CDB" stroke-width="2.5" stroke-miterlimit="10"/>
<path d="M2.1051 6.83097V2.62727C2.1051 1.88962 2.70863 1.28609 3.44628 1.28609H20.3599C21.0975 1.28609 21.701 1.88962 21.701 2.62727V10.8362" stroke="#2D9CDB" stroke-width="2.5" stroke-miterlimit="10" stroke-linejoin="round"/>
<path d="M2 14.582V9L21.5378 9.00045" stroke="#2D9CDB" stroke-width="2.5" stroke-miterlimit="10"/>
<path d="M12.9051 23.5648H3.44628C2.70863 23.5648 2.1051 22.9613 2.1051 22.2236V16.1115H3.01263H17.2112" stroke="#2D9CDB" stroke-width="2.5" stroke-miterlimit="10"/>
</svg>
